<svg width="672" height="20" viewBox="0 0 672 20" fill="none" xmlns="http://www.w3.org/2000/svg">
<path d="M9.712 4.8H11.312V16H9.712V4.8ZM3.28 16H1.68V4.8H3.28V16ZM9.856 11.008H3.12V9.616H9.856V11.008ZM18.0724 16.096C17.219 16.096 16.4617 15.9093 15.8004 15.536C15.139 15.1627 14.6164 14.6507 14.2324 14C13.8484 13.3387 13.6564 12.592 13.6564 11.76C13.6564 10.9173 13.8484 10.1707 14.2324 9.52C14.6164 8.86933 15.139 8.36267 15.8004 8C16.4617 7.62667 17.219 7.44 18.0724 7.44C18.915 7.44 19.667 7.62667 20.3284 8C21.0004 8.36267 21.523 8.86933 21.8964 9.52C22.2804 10.16 22.4724 10.9067 22.4724 11.76C22.4724 12.6027 22.2804 13.3493 21.8964 14C21.523 14.6507 21.0004 15.1627 20.3284 15.536C19.667 15.9093 18.915 16.096 18.0724 16.096ZM18.0724 14.752C18.6164 14.752 19.1017 14.6293 19.5284 14.384C19.9657 14.1387 20.307 13.792 20.5524 13.344C20.7977 12.8853 20.9204 12.3573 20.9204 11.76C20.9204 11.152 20.7977 10.6293 20.5524 10.192C20.307 9.744 19.9657 9.39733 19.5284 9.152C19.1017 8.90667 18.6164 8.784 18.0724 8.784C17.5284 8.784 17.043 8.90667 16.6164 9.152C16.1897 9.39733 15.8484 9.744 15.5924 10.192C15.3364 10.6293 15.2084 11.152 15.2084 11.76C15.2084 12.3573 15.3364 12.8853 15.5924 13.344C15.8484 13.792 16.1897 14.1387 16.6164 14.384C17.043 14.6293 17.5284 14.752 18.0724 14.752ZM35.2046 7.44C35.8873 7.44 36.49 7.57333 37.0126 7.84C37.5353 8.10667 37.9406 8.512 38.2286 9.056C38.5273 9.6 38.6766 10.288 38.6766 11.12V16H37.1406V11.296C37.1406 10.4747 36.9486 9.856 36.5646 9.44C36.1806 9.024 35.642 8.816 34.9486 8.816C34.4366 8.816 33.9886 8.92267 33.6046 9.136C33.2206 9.34933 32.922 9.664 32.7086 10.08C32.506 10.496 32.4046 11.0133 32.4046 11.632V16H30.8686V11.296C30.8686 10.4747 30.6766 9.856 30.2926 9.44C29.9193 9.024 29.3806 8.816 28.6766 8.816C28.1753 8.816 27.7326 8.92267 27.3486 9.136C26.9646 9.34933 26.666 9.664 26.4526 10.08C26.2393 10.496 26.1326 11.0133 26.1326 11.632V16H24.5966V7.52H26.0686V9.776L25.8286 9.2C26.0953 8.64533 26.506 8.21333 27.0606 7.904C27.6153 7.59467 28.2606 7.44 28.9966 7.44C29.8073 7.44 30.506 7.64267 31.0926 8.048C31.6793 8.44267 32.0633 9.04533 32.2446 9.856L31.6206 9.6C31.8766 8.94933 32.3246 8.42667 32.9646 8.032C33.6046 7.63733 34.3513 7.44 35.2046 7.44ZM45.2789 16.096C44.3722 16.096 43.5722 15.9093 42.8789 15.536C42.1962 15.1627 41.6629 14.6507 41.2789 14C40.9055 13.3493 40.7189 12.6027 40.7189 11.76C40.7189 10.9173 40.9002 10.1707 41.2629 9.52C41.6362 8.86933 42.1429 8.36267 42.7829 8C43.4335 7.62667 44.1642 7.44 44.9749 7.44C45.7962 7.44 46.5215 7.62133 47.1509 7.984C47.7802 8.34667 48.2709 8.85867 48.6229 9.52C48.9855 10.1707 49.1669 10.9333 49.1669 11.808C49.1669 11.872 49.1615 11.9467 49.1509 12.032C49.1509 12.1173 49.1455 12.1973 49.1349 12.272H41.9189V11.168H48.3349L47.7109 11.552C47.7215 11.008 47.6095 10.5227 47.3749 10.096C47.1402 9.66933 46.8149 9.33867 46.3989 9.104C45.9935 8.85867 45.5189 8.736 44.9749 8.736C44.4415 8.736 43.9669 8.85867 43.5509 9.104C43.1349 9.33867 42.8095 9.67467 42.5749 10.112C42.3402 10.5387 42.2229 11.0293 42.2229 11.584V11.84C42.2229 12.4053 42.3509 12.912 42.6069 13.36C42.8735 13.7973 43.2415 14.1387 43.7109 14.384C44.1802 14.6293 44.7189 14.752 45.3269 14.752C45.8282 14.752 46.2815 14.6667 46.6869 14.496C47.1029 14.3253 47.4655 14.0693 47.7749 13.728L48.6229 14.72C48.2389 15.168 47.7589 15.5093 47.1829 15.744C46.6175 15.9787 45.9829 16.096 45.2789 16.096Z" fill="#938C8C"/>
<path d="M174.417 10.096H180.193V11.472H174.417V10.096ZM174.577 16H172.977V4.8H180.881V6.192H174.577V16ZM182.753 16V7.52H184.225V9.824L184.081 9.248C184.316 8.66133 184.71 8.21333 185.265 7.904C185.82 7.59467 186.502 7.44 187.313 7.44V8.928C187.249 8.91733 187.185 8.912 187.121 8.912C187.068 8.912 187.014 8.912 186.961 8.912C186.14 8.912 185.489 9.15733 185.009 9.648C184.529 10.1387 184.289 10.848 184.289 11.776V16H182.753ZM192.904 16.096C191.997 16.096 191.197 15.9093 190.504 15.536C189.821 15.1627 189.288 14.6507 188.904 14C188.531 13.3493 188.344 12.6027 188.344 11.76C188.344 10.9173 188.525 10.1707 188.888 9.52C189.261 8.86933 189.768 8.36267 190.408 8C191.059 7.62667 191.789 7.44 192.6 7.44C193.421 7.44 194.147 7.62133 194.776 7.984C195.405 8.34667 195.896 8.85867 196.248 9.52C196.611 10.1707 196.792 10.9333 196.792 11.808C196.792 11.872 196.787 11.9467 196.776 12.032C196.776 12.1173 196.771 12.1973 196.76 12.272H189.544V11.168H195.96L195.336 11.552C195.347 11.008 195.235 10.5227 195 10.096C194.765 9.66933 194.44 9.33867 194.024 9.104C193.619 8.85867 193.144 8.736 192.6 8.736C192.067 8.736 191.592 8.85867 191.176 9.104C190.76 9.33867 190.435 9.67467 190.2 10.112C189.965 10.5387 189.848 11.0293 189.848 11.584V11.84C189.848 12.4053 189.976 12.912 190.232 13.36C190.499 13.7973 190.867 14.1387 191.336 14.384C191.805 14.6293 192.344 14.752 192.952 14.752C193.453 14.752 193.907 14.6667 194.312 14.496C194.728 14.3253 195.091 14.0693 195.4 13.728L196.248 14.72C195.864 15.168 195.384 15.5093 194.808 15.744C194.243 15.9787 193.608 16.096 192.904 16.096ZM202.701 16.096C201.794 16.096 200.994 15.9093 200.301 15.536C199.618 15.1627 199.085 14.6507 198.701 14C198.327 13.3493 198.141 12.6027 198.141 11.76C198.141 10.9173 198.322 10.1707 198.685 9.52C199.058 8.86933 199.565 8.36267 200.205 8C200.855 7.62667 201.586 7.44 202.397 7.44C203.218 7.44 203.943 7.62133 204.573 7.984C205.202 8.34667 205.693 8.85867 206.045 9.52C206.407 10.1707 206.589 10.9333 206.589 11.808C206.589 11.872 206.583 11.9467 206.573 12.032C206.573 12.1173 206.567 12.1973 206.557 12.272H199.341V11.168H205.757L205.133 11.552C205.143 11.008 205.031 10.5227 204.797 10.096C204.562 9.66933 204.237 9.33867 203.821 9.104C203.415 8.85867 202.941 8.736 202.397 8.736C201.863 8.736 201.389 8.85867 200.973 9.104C200.557 9.33867 200.231 9.67467 199.997 10.112C199.762 10.5387 199.645 11.0293 199.645 11.584V11.84C199.645 12.4053 199.773 12.912 200.029 13.36C200.295 13.7973 200.663 14.1387 201.133 14.384C201.602 14.6293 202.141 14.752 202.749 14.752C203.25 14.752 203.703 14.6667 204.109 14.496C204.525 14.3253 204.887 14.0693 205.197 13.728L206.045 14.72C205.661 15.168 205.181 15.5093 204.605 15.744C204.039 15.9787 203.405 16.096 202.701 16.096ZM208.722 16V4.128H210.258V16H208.722ZM218.454 16V14.208L218.374 13.872V10.816C218.374 10.1653 218.182 9.664 217.798 9.312C217.425 8.94933 216.86 8.768 216.102 8.768C215.601 8.768 215.11 8.85333 214.63 9.024C214.15 9.184 213.745 9.40267 213.414 9.68L212.774 8.528C213.212 8.176 213.734 7.90933 214.342 7.728C214.961 7.536 215.606 7.44 216.278 7.44C217.441 7.44 218.337 7.72267 218.966 8.288C219.596 8.85333 219.91 9.71733 219.91 10.88V16H218.454ZM215.67 16.096C215.041 16.096 214.486 15.9893 214.006 15.776C213.537 15.5627 213.174 15.2693 212.918 14.896C212.662 14.512 212.534 14.08 212.534 13.6C212.534 13.1413 212.641 12.7253 212.854 12.352C213.078 11.9787 213.436 11.68 213.926 11.456C214.428 11.232 215.1 11.12 215.942 11.12H218.63V12.224H216.006C215.238 12.224 214.721 12.352 214.454 12.608C214.188 12.864 214.054 13.1733 214.054 13.536C214.054 13.952 214.22 14.288 214.55 14.544C214.881 14.7893 215.34 14.912 215.926 14.912C216.502 14.912 217.004 14.784 217.43 14.528C217.868 14.272 218.182 13.8987 218.374 13.408L218.678 14.464C218.476 14.9653 218.118 15.3653 217.606 15.664C217.094 15.952 216.449 16.096 215.67 16.096ZM227.281 7.44C227.974 7.44 228.582 7.57333 229.105 7.84C229.638 8.10667 230.054 8.512 230.353 9.056C230.652 9.6 230.801 10.288 230.801 11.12V16H229.265V11.296C229.265 10.4747 229.062 9.856 228.657 9.44C228.262 9.024 227.702 8.816 226.977 8.816C226.433 8.816 225.958 8.92267 225.553 9.136C225.148 9.34933 224.833 9.664 224.609 10.08C224.396 10.496 224.289 11.0133 224.289 11.632V16H222.753V7.52H224.225V9.808L223.985 9.2C224.262 8.64533 224.689 8.21333 225.265 7.904C225.841 7.59467 226.513 7.44 227.281 7.44ZM237.34 16.096C236.476 16.096 235.702 15.9093 235.02 15.536C234.348 15.1627 233.82 14.6507 233.436 14C233.052 13.3493 232.86 12.6027 232.86 11.76C232.86 10.9173 233.052 10.1707 233.436 9.52C233.82 8.86933 234.348 8.36267 235.02 8C235.702 7.62667 236.476 7.44 237.34 7.44C238.108 7.44 238.79 7.59467 239.388 7.904C239.996 8.20267 240.465 8.65067 240.796 9.248L239.628 10C239.35 9.584 239.009 9.28 238.604 9.088C238.209 8.88533 237.782 8.784 237.324 8.784C236.769 8.784 236.273 8.90667 235.836 9.152C235.398 9.39733 235.052 9.744 234.796 10.192C234.54 10.6293 234.412 11.152 234.412 11.76C234.412 12.368 234.54 12.896 234.796 13.344C235.052 13.792 235.398 14.1387 235.836 14.384C236.273 14.6293 236.769 14.752 237.324 14.752C237.782 14.752 238.209 14.656 238.604 14.464C239.009 14.2613 239.35 13.952 239.628 13.536L240.796 14.272C240.465 14.8587 239.996 15.312 239.388 15.632C238.79 15.9413 238.108 16.096 237.34 16.096ZM246.435 16.096C245.528 16.096 244.728 15.9093 244.035 15.536C243.352 15.1627 242.819 14.6507 242.435 14C242.062 13.3493 241.875 12.6027 241.875 11.76C241.875 10.9173 242.056 10.1707 242.419 9.52C242.792 8.86933 243.299 8.36267 243.939 8C244.59 7.62667 245.32 7.44 246.131 7.44C246.952 7.44 247.678 7.62133 248.307 7.984C248.936 8.34667 249.427 8.85867 249.779 9.52C250.142 10.1707 250.323 10.9333 250.323 11.808C250.323 11.872 250.318 11.9467 250.307 12.032C250.307 12.1173 250.302 12.1973 250.291 12.272H243.075V11.168H249.491L248.867 11.552C248.878 11.008 248.766 10.5227 248.531 10.096C248.296 9.66933 247.971 9.33867 247.555 9.104C247.15 8.85867 246.675 8.736 246.131 8.736C245.598 8.736 245.123 8.85867 244.707 9.104C244.291 9.33867 243.966 9.67467 243.731 10.112C243.496 10.5387 243.379 11.0293 243.379 11.584V11.84C243.379 12.4053 243.507 12.912 243.763 13.36C244.03 13.7973 244.398 14.1387 244.867 14.384C245.336 14.6293 245.875 14.752 246.483 14.752C246.984 14.752 247.438 14.6667 247.843 14.496C248.259 14.3253 248.622 14.0693 248.931 13.728L249.779 14.72C249.395 15.168 248.915 15.5093 248.339 15.744C247.774 15.9787 247.139 16.096 246.435 16.096Z" fill="#938C8C"/>
<line x1="256.413" y1="9.94348" x2="262.444" y2="15.5101" stroke="#938C8C" stroke-width="2" stroke-linecap="round"/>
<line x1="1" y1="-1" x2="9.20695" y2="-1" transform="matrix(-0.734803 0.67828 0.67828 0.734803 270 10)" stroke="#938C8C" stroke-width="2" stroke-linecap="round"/>
<path d="M85.12 16.128C84.4587 16.128 83.84 15.9893 83.264 15.712C82.688 15.4347 82.2187 15.0347 81.856 14.512L82.784 13.424C83.0933 13.8507 83.44 14.1813 83.824 14.416C84.2187 14.64 84.6507 14.752 85.12 14.752C86.4 14.752 87.04 13.9947 87.04 12.48V6.192H82.992V4.8H88.624V12.4C88.624 13.648 88.3253 14.5813 87.728 15.2C87.1413 15.8187 86.272 16.128 85.12 16.128ZM95.2911 16.096C94.4378 16.096 93.6805 15.9093 93.0191 15.536C92.3578 15.1627 91.8351 14.6507 91.4511 14C91.0671 13.3387 90.8751 12.592 90.8751 11.76C90.8751 10.9173 91.0671 10.1707 91.4511 9.52C91.8351 8.86933 92.3578 8.36267 93.0191 8C93.6805 7.62667 94.4378 7.44 95.2911 7.44C96.1338 7.44 96.8858 7.62667 97.5471 8C98.2191 8.36267 98.7418 8.86933 99.1151 9.52C99.4991 10.16 99.6911 10.9067 99.6911 11.76C99.6911 12.6027 99.4991 13.3493 99.1151 14C98.7418 14.6507 98.2191 15.1627 97.5471 15.536C96.8858 15.9093 96.1338 16.096 95.2911 16.096ZM95.2911 14.752C95.8351 14.752 96.3205 14.6293 96.7471 14.384C97.1845 14.1387 97.5258 13.792 97.7711 13.344C98.0165 12.8853 98.1391 12.3573 98.1391 11.76C98.1391 11.152 98.0165 10.6293 97.7711 10.192C97.5258 9.744 97.1845 9.39733 96.7471 9.152C96.3205 8.90667 95.8351 8.784 95.2911 8.784C94.7471 8.784 94.2618 8.90667 93.8351 9.152C93.4085 9.39733 93.0671 9.744 92.8111 10.192C92.5551 10.6293 92.4271 11.152 92.4271 11.76C92.4271 12.3573 92.5551 12.8853 92.8111 13.344C93.0671 13.792 93.4085 14.1387 93.8351 14.384C94.2618 14.6293 94.7471 14.752 95.2911 14.752ZM106.311 16.096C105.586 16.096 104.93 15.936 104.343 15.616C103.767 15.2853 103.309 14.8 102.967 14.16C102.637 13.52 102.471 12.72 102.471 11.76C102.471 10.8 102.642 10 102.983 9.36C103.335 8.72 103.799 8.24 104.375 7.92C104.962 7.6 105.607 7.44 106.311 7.44C107.143 7.44 107.879 7.62133 108.519 7.984C109.159 8.34667 109.666 8.85333 110.039 9.504C110.413 10.144 110.599 10.896 110.599 11.76C110.599 12.624 110.413 13.3813 110.039 14.032C109.666 14.6827 109.159 15.1893 108.519 15.552C107.879 15.9147 107.143 16.096 106.311 16.096ZM101.815 16V4.128H103.351V9.776L103.191 11.744L103.287 13.712V16H101.815ZM106.183 14.752C106.727 14.752 107.213 14.6293 107.639 14.384C108.077 14.1387 108.418 13.792 108.663 13.344C108.919 12.8853 109.047 12.3573 109.047 11.76C109.047 11.152 108.919 10.6293 108.663 10.192C108.418 9.744 108.077 9.39733 107.639 9.152C107.213 8.90667 106.727 8.784 106.183 8.784C105.65 8.784 105.165 8.90667 104.727 9.152C104.301 9.39733 103.959 9.744 103.703 10.192C103.458 10.6293 103.335 11.152 103.335 11.76C103.335 12.3573 103.458 12.8853 103.703 13.344C103.959 13.792 104.301 14.1387 104.727 14.384C105.165 14.6293 105.65 14.752 106.183 14.752ZM115.154 16.096C114.45 16.096 113.778 16 113.138 15.808C112.508 15.616 112.012 15.3813 111.65 15.104L112.29 13.888C112.652 14.1333 113.1 14.3413 113.634 14.512C114.167 14.6827 114.711 14.768 115.266 14.768C115.98 14.768 116.492 14.6667 116.802 14.464C117.122 14.2613 117.282 13.9787 117.282 13.616C117.282 13.3493 117.186 13.1413 116.994 12.992C116.802 12.8427 116.546 12.7307 116.226 12.656C115.916 12.5813 115.57 12.5173 115.186 12.464C114.802 12.4 114.418 12.3253 114.034 12.24C113.65 12.144 113.298 12.016 112.978 11.856C112.658 11.6853 112.402 11.456 112.21 11.168C112.018 10.8693 111.922 10.4747 111.922 9.984C111.922 9.472 112.066 9.024 112.354 8.64C112.642 8.256 113.047 7.96267 113.57 7.76C114.103 7.54667 114.732 7.44 115.458 7.44C116.012 7.44 116.572 7.50933 117.138 7.648C117.714 7.776 118.183 7.96267 118.546 8.208L117.89 9.424C117.506 9.168 117.106 8.992 116.69 8.896C116.274 8.8 115.858 8.752 115.442 8.752C114.77 8.752 114.268 8.864 113.938 9.088C113.607 9.30133 113.442 9.57867 113.442 9.92C113.442 10.208 113.538 10.432 113.73 10.592C113.932 10.7413 114.188 10.8587 114.498 10.944C114.818 11.0293 115.17 11.104 115.554 11.168C115.938 11.2213 116.322 11.296 116.706 11.392C117.09 11.4773 117.436 11.6 117.746 11.76C118.066 11.92 118.322 12.144 118.514 12.432C118.716 12.72 118.818 13.104 118.818 13.584C118.818 14.096 118.668 14.5387 118.37 14.912C118.071 15.2853 117.65 15.5787 117.106 15.792C116.562 15.9947 115.911 16.096 115.154 16.096Z" fill="#282828"/>
<line x1="137.587" y1="16.9794" x2="131.556" y2="11.4128" stroke="#282828" stroke-width="2" stroke-linecap="round"/>
<line x1="1" y1="-1" x2="9.20695" y2="-1" transform="matrix(0.734803 -0.67828 -0.67828 -0.734803 124 16.9229)" stroke="#282828" stroke-width="2" stroke-linecap="round"/>
<path d="M303.68 16V4.8H308.704C309.995 4.8 310.987 5.06133 311.68 5.584C312.373 6.096 312.72 6.8 312.72 7.696C312.72 8.304 312.581 8.816 312.304 9.232C312.037 9.648 311.675 9.968 311.216 10.192C310.757 10.416 310.261 10.528 309.728 10.528L310.016 10.048C310.656 10.048 311.221 10.16 311.712 10.384C312.203 10.608 312.592 10.9387 312.88 11.376C313.168 11.8027 313.312 12.336 313.312 12.976C313.312 13.936 312.949 14.6827 312.224 15.216C311.509 15.7387 310.443 16 309.024 16H303.68ZM305.28 14.704H308.96C309.845 14.704 310.523 14.5547 310.992 14.256C311.461 13.9573 311.696 13.488 311.696 12.848C311.696 12.1973 311.461 11.7227 310.992 11.424C310.523 11.1253 309.845 10.976 308.96 10.976H305.136V9.68H308.56C309.371 9.68 310 9.53067 310.448 9.232C310.896 8.93333 311.12 8.48533 311.12 7.888C311.12 7.29067 310.896 6.84267 310.448 6.544C310 6.24533 309.371 6.096 308.56 6.096H305.28V14.704ZM315.565 16V4.128H317.101V16H315.565ZM323.666 16.096C322.813 16.096 322.055 15.9093 321.394 15.536C320.733 15.1627 320.21 14.6507 319.826 14C319.442 13.3387 319.25 12.592 319.25 11.76C319.25 10.9173 319.442 10.1707 319.826 9.52C320.21 8.86933 320.733 8.36267 321.394 8C322.055 7.62667 322.813 7.44 323.666 7.44C324.509 7.44 325.261 7.62667 325.922 8C326.594 8.36267 327.117 8.86933 327.49 9.52C327.874 10.16 328.066 10.9067 328.066 11.76C328.066 12.6027 327.874 13.3493 327.49 14C327.117 14.6507 326.594 15.1627 325.922 15.536C325.261 15.9093 324.509 16.096 323.666 16.096ZM323.666 14.752C324.21 14.752 324.695 14.6293 325.122 14.384C325.559 14.1387 325.901 13.792 326.146 13.344C326.391 12.8853 326.514 12.3573 326.514 11.76C326.514 11.152 326.391 10.6293 326.146 10.192C325.901 9.744 325.559 9.39733 325.122 9.152C324.695 8.90667 324.21 8.784 323.666 8.784C323.122 8.784 322.637 8.90667 322.21 9.152C321.783 9.39733 321.442 9.744 321.186 10.192C320.93 10.6293 320.802 11.152 320.802 11.76C320.802 12.3573 320.93 12.8853 321.186 13.344C321.442 13.792 321.783 14.1387 322.21 14.384C322.637 14.6293 323.122 14.752 323.666 14.752ZM333.902 19.2C333.124 19.2 332.366 19.088 331.63 18.864C330.905 18.6507 330.313 18.3413 329.854 17.936L330.59 16.752C330.985 17.0933 331.47 17.36 332.046 17.552C332.622 17.7547 333.225 17.856 333.854 17.856C334.857 17.856 335.593 17.6213 336.062 17.152C336.532 16.6827 336.766 15.968 336.766 15.008V13.216L336.926 11.536L336.846 9.84V7.52H338.302V14.848C338.302 16.3413 337.929 17.44 337.182 18.144C336.436 18.848 335.342 19.2 333.902 19.2ZM333.71 15.648C332.889 15.648 332.153 15.4773 331.502 15.136C330.862 14.784 330.35 14.2987 329.966 13.68C329.593 13.0613 329.406 12.3467 329.406 11.536C329.406 10.7147 329.593 10 329.966 9.392C330.35 8.77333 330.862 8.29333 331.502 7.952C332.153 7.61067 332.889 7.44 333.71 7.44C334.436 7.44 335.097 7.58933 335.694 7.888C336.292 8.176 336.766 8.624 337.118 9.232C337.481 9.84 337.662 10.608 337.662 11.536C337.662 12.4533 337.481 13.216 337.118 13.824C336.766 14.432 336.292 14.8907 335.694 15.2C335.097 15.4987 334.436 15.648 333.71 15.648ZM333.886 14.304C334.452 14.304 334.953 14.1867 335.39 13.952C335.828 13.7173 336.169 13.392 336.414 12.976C336.67 12.56 336.798 12.08 336.798 11.536C336.798 10.992 336.67 10.512 336.414 10.096C336.169 9.68 335.828 9.36 335.39 9.136C334.953 8.90133 334.452 8.784 333.886 8.784C333.321 8.784 332.814 8.90133 332.366 9.136C331.929 9.36 331.582 9.68 331.326 10.096C331.081 10.512 330.958 10.992 330.958 11.536C330.958 12.08 331.081 12.56 331.326 12.976C331.582 13.392 331.929 13.7173 332.366 13.952C332.814 14.1867 333.321 14.304 333.886 14.304Z" fill="#938C8C"/>
<line x1="345.413" y1="9.94348" x2="351.444" y2="15.5101" stroke="#938C8C" stroke-width="2" stroke-linecap="round"/>
<line x1="1" y1="-1" x2="9.20695" y2="-1" transform="matrix(-0.734803 0.67828 0.67828 0.734803 359 10)" stroke="#938C8C" stroke-width="2" stroke-linecap="round"/>
<path d="M392.68 16V4.8H394.28V16H392.68ZM401.937 7.44C402.63 7.44 403.238 7.57333 403.761 7.84C404.294 8.10667 404.71 8.512 405.009 9.056C405.308 9.6 405.457 10.288 405.457 11.12V16H403.921V11.296C403.921 10.4747 403.718 9.856 403.313 9.44C402.918 9.024 402.358 8.816 401.633 8.816C401.089 8.816 400.614 8.92267 400.209 9.136C399.804 9.34933 399.489 9.664 399.265 10.08C399.052 10.496 398.945 11.0133 398.945 11.632V16H397.409V7.52H398.881V9.808L398.641 9.2C398.918 8.64533 399.345 8.21333 399.921 7.904C400.497 7.59467 401.169 7.44 401.937 7.44ZM411.212 16.096C410.358 16.096 409.697 15.8667 409.228 15.408C408.758 14.9493 408.524 14.2933 408.524 13.44V5.664H410.06V13.376C410.06 13.8347 410.172 14.1867 410.396 14.432C410.63 14.6773 410.961 14.8 411.388 14.8C411.868 14.8 412.268 14.6667 412.588 14.4L413.068 15.504C412.833 15.7067 412.55 15.856 412.22 15.952C411.9 16.048 411.564 16.096 411.212 16.096ZM407.084 8.784V7.52H412.492V8.784H407.084ZM418.42 16.096C417.513 16.096 416.713 15.9093 416.02 15.536C415.337 15.1627 414.804 14.6507 414.42 14C414.046 13.3493 413.86 12.6027 413.86 11.76C413.86 10.9173 414.041 10.1707 414.404 9.52C414.777 8.86933 415.284 8.36267 415.924 8C416.574 7.62667 417.305 7.44 418.116 7.44C418.937 7.44 419.662 7.62133 420.292 7.984C420.921 8.34667 421.412 8.85867 421.764 9.52C422.126 10.1707 422.308 10.9333 422.308 11.808C422.308 11.872 422.302 11.9467 422.292 12.032C422.292 12.1173 422.286 12.1973 422.276 12.272H415.06V11.168H421.476L420.852 11.552C420.862 11.008 420.75 10.5227 420.516 10.096C420.281 9.66933 419.956 9.33867 419.54 9.104C419.134 8.85867 418.66 8.736 418.116 8.736C417.582 8.736 417.108 8.85867 416.692 9.104C416.276 9.33867 415.95 9.67467 415.716 10.112C415.481 10.5387 415.364 11.0293 415.364 11.584V11.84C415.364 12.4053 415.492 12.912 415.748 13.36C416.014 13.7973 416.382 14.1387 416.852 14.384C417.321 14.6293 417.86 14.752 418.468 14.752C418.969 14.752 419.422 14.6667 419.828 14.496C420.244 14.3253 420.606 14.0693 420.916 13.728L421.764 14.72C421.38 15.168 420.9 15.5093 420.324 15.744C419.758 15.9787 419.124 16.096 418.42 16.096ZM424.44 16V7.52H425.912V9.824L425.768 9.248C426.003 8.66133 426.398 8.21333 426.952 7.904C427.507 7.59467 428.19 7.44 429 7.44V8.928C428.936 8.91733 428.872 8.912 428.808 8.912C428.755 8.912 428.702 8.912 428.648 8.912C427.827 8.912 427.176 9.15733 426.696 9.648C426.216 10.1387 425.976 10.848 425.976 11.776V16H424.44ZM435.422 7.44C436.115 7.44 436.723 7.57333 437.246 7.84C437.779 8.10667 438.195 8.512 438.494 9.056C438.792 9.6 438.942 10.288 438.942 11.12V16H437.406V11.296C437.406 10.4747 437.203 9.856 436.798 9.44C436.403 9.024 435.843 8.816 435.118 8.816C434.574 8.816 434.099 8.92267 433.694 9.136C433.288 9.34933 432.974 9.664 432.75 10.08C432.536 10.496 432.43 11.0133 432.43 11.632V16H430.894V7.52H432.366V9.808L432.126 9.2C432.403 8.64533 432.83 8.21333 433.406 7.904C433.982 7.59467 434.654 7.44 435.422 7.44ZM444.216 16.096C443.512 16.096 442.84 16 442.2 15.808C441.571 15.616 441.075 15.3813 440.712 15.104L441.352 13.888C441.715 14.1333 442.163 14.3413 442.696 14.512C443.229 14.6827 443.773 14.768 444.328 14.768C445.043 14.768 445.555 14.6667 445.864 14.464C446.184 14.2613 446.344 13.9787 446.344 13.616C446.344 13.3493 446.248 13.1413 446.056 12.992C445.864 12.8427 445.608 12.7307 445.288 12.656C444.979 12.5813 444.632 12.5173 444.248 12.464C443.864 12.4 443.48 12.3253 443.096 12.24C442.712 12.144 442.36 12.016 442.04 11.856C441.72 11.6853 441.464 11.456 441.272 11.168C441.08 10.8693 440.984 10.4747 440.984 9.984C440.984 9.472 441.128 9.024 441.416 8.64C441.704 8.256 442.109 7.96267 442.632 7.76C443.165 7.54667 443.795 7.44 444.52 7.44C445.075 7.44 445.635 7.50933 446.2 7.648C446.776 7.776 447.245 7.96267 447.608 8.208L446.952 9.424C446.568 9.168 446.168 8.992 445.752 8.896C445.336 8.8 444.92 8.752 444.504 8.752C443.832 8.752 443.331 8.864 443 9.088C442.669 9.30133 442.504 9.57867 442.504 9.92C442.504 10.208 442.6 10.432 442.792 10.592C442.995 10.7413 443.251 10.8587 443.56 10.944C443.88 11.0293 444.232 11.104 444.616 11.168C445 11.2213 445.384 11.296 445.768 11.392C446.152 11.4773 446.499 11.6 446.808 11.76C447.128 11.92 447.384 12.144 447.576 12.432C447.779 12.72 447.88 13.104 447.88 13.584C447.88 14.096 447.731 14.5387 447.432 14.912C447.133 15.2853 446.712 15.5787 446.168 15.792C445.624 15.9947 444.973 16.096 444.216 16.096ZM454.328 7.44C455.021 7.44 455.629 7.57333 456.152 7.84C456.685 8.10667 457.101 8.512 457.4 9.056C457.698 9.6 457.848 10.288 457.848 11.12V16H456.312V11.296C456.312 10.4747 456.109 9.856 455.704 9.44C455.309 9.024 454.749 8.816 454.024 8.816C453.48 8.816 453.005 8.92267 452.6 9.136C452.194 9.34933 451.88 9.664 451.656 10.08C451.442 10.496 451.336 11.0133 451.336 11.632V16H449.8V4.128H451.336V9.808L451.032 9.2C451.309 8.64533 451.736 8.21333 452.312 7.904C452.888 7.59467 453.56 7.44 454.328 7.44ZM460.69 16V7.52H462.226V16H460.69ZM461.458 5.888C461.16 5.888 460.909 5.792 460.706 5.6C460.514 5.408 460.418 5.17333 460.418 4.896C460.418 4.608 460.514 4.368 460.706 4.176C460.909 3.984 461.16 3.888 461.458 3.888C461.757 3.888 462.002 3.984 462.194 4.176C462.397 4.35733 462.498 4.58667 462.498 4.864C462.498 5.152 462.402 5.39733 462.21 5.6C462.018 5.792 461.768 5.888 461.458 5.888ZM469.655 16.096C468.951 16.096 468.306 15.936 467.719 15.616C467.143 15.2853 466.679 14.8 466.327 14.16C465.986 13.52 465.815 12.72 465.815 11.76C465.815 10.8 465.98 10 466.311 9.36C466.652 8.72 467.111 8.24 467.687 7.92C468.274 7.6 468.93 7.44 469.655 7.44C470.487 7.44 471.223 7.62133 471.863 7.984C472.503 8.34667 473.01 8.85333 473.383 9.504C473.756 10.144 473.943 10.896 473.943 11.76C473.943 12.624 473.756 13.3813 473.383 14.032C473.01 14.6827 472.503 15.1893 471.863 15.552C471.223 15.9147 470.487 16.096 469.655 16.096ZM465.159 19.104V7.52H466.631V9.808L466.535 11.776L466.695 13.744V19.104H465.159ZM469.527 14.752C470.071 14.752 470.556 14.6293 470.983 14.384C471.42 14.1387 471.762 13.792 472.007 13.344C472.263 12.8853 472.391 12.3573 472.391 11.76C472.391 11.152 472.263 10.6293 472.007 10.192C471.762 9.744 471.42 9.39733 470.983 9.152C470.556 8.90667 470.071 8.784 469.527 8.784C468.994 8.784 468.508 8.90667 468.071 9.152C467.644 9.39733 467.303 9.744 467.047 10.192C466.802 10.6293 466.679 11.152 466.679 11.76C466.679 12.3573 466.802 12.8853 467.047 13.344C467.303 13.792 467.644 14.1387 468.071 14.384C468.508 14.6293 468.994 14.752 469.527 14.752Z" fill="#938C8C"/>
<line x1="485.413" y1="9.94348" x2="491.444" y2="15.5101" stroke="#938C8C" stroke-width="2" stroke-linecap="round"/>
<line x1="1" y1="-1" x2="9.20695" y2="-1" transform="matrix(-0.734803 0.67828 0.67828 0.734803 499 10)" stroke="#938C8C" stroke-width="2" stroke-linecap="round"/>
<path d="M622.713 4.8H624.313V16H622.713V4.8ZM616.281 16H614.681V4.8H616.281V16ZM622.857 11.008H616.121V9.616H622.857V11.008ZM627.441 16V7.52H628.977V16H627.441ZM628.209 5.888C627.911 5.888 627.66 5.792 627.457 5.6C627.265 5.408 627.169 5.17333 627.169 4.896C627.169 4.608 627.265 4.368 627.457 4.176C627.66 3.984 627.911 3.888 628.209 3.888C628.508 3.888 628.753 3.984 628.945 4.176C629.148 4.35733 629.249 4.58667 629.249 4.864C629.249 5.152 629.153 5.39733 628.961 5.6C628.769 5.792 628.519 5.888 628.209 5.888ZM631.91 16V7.52H633.382V9.824L633.238 9.248C633.473 8.66133 633.867 8.21333 634.422 7.904C634.977 7.59467 635.659 7.44 636.47 7.44V8.928C636.406 8.91733 636.342 8.912 636.278 8.912C636.225 8.912 636.171 8.912 636.118 8.912C635.297 8.912 634.646 9.15733 634.166 9.648C633.686 10.1387 633.446 10.848 633.446 11.776V16H631.91ZM642.061 16.096C641.154 16.096 640.354 15.9093 639.661 15.536C638.978 15.1627 638.445 14.6507 638.061 14C637.688 13.3493 637.501 12.6027 637.501 11.76C637.501 10.9173 637.682 10.1707 638.045 9.52C638.418 8.86933 638.925 8.36267 639.565 8C640.216 7.62667 640.946 7.44 641.757 7.44C642.578 7.44 643.304 7.62133 643.933 7.984C644.562 8.34667 645.053 8.85867 645.405 9.52C645.768 10.1707 645.949 10.9333 645.949 11.808C645.949 11.872 645.944 11.9467 645.933 12.032C645.933 12.1173 645.928 12.1973 645.917 12.272H638.701V11.168H645.117L644.493 11.552C644.504 11.008 644.392 10.5227 644.157 10.096C643.922 9.66933 643.597 9.33867 643.181 9.104C642.776 8.85867 642.301 8.736 641.757 8.736C641.224 8.736 640.749 8.85867 640.333 9.104C639.917 9.33867 639.592 9.67467 639.357 10.112C639.122 10.5387 639.005 11.0293 639.005 11.584V11.84C639.005 12.4053 639.133 12.912 639.389 13.36C639.656 13.7973 640.024 14.1387 640.493 14.384C640.962 14.6293 641.501 14.752 642.109 14.752C642.61 14.752 643.064 14.6667 643.469 14.496C643.885 14.3253 644.248 14.0693 644.557 13.728L645.405 14.72C645.021 15.168 644.541 15.5093 643.965 15.744C643.4 15.9787 642.765 16.096 642.061 16.096ZM657.243 16.128C655.771 16.128 654.614 15.7067 653.771 14.864C652.928 14.0213 652.507 12.7893 652.507 11.168V4.8H654.107V11.104C654.107 12.352 654.379 13.264 654.923 13.84C655.478 14.416 656.256 14.704 657.259 14.704C658.272 14.704 659.051 14.416 659.595 13.84C660.15 13.264 660.427 12.352 660.427 11.104V4.8H661.979V11.168C661.979 12.7893 661.558 14.0213 660.715 14.864C659.883 15.7067 658.726 16.128 657.243 16.128ZM667.467 16.096C666.763 16.096 666.091 16 665.451 15.808C664.822 15.616 664.326 15.3813 663.963 15.104L664.603 13.888C664.966 14.1333 665.414 14.3413 665.947 14.512C666.48 14.6827 667.024 14.768 667.579 14.768C668.294 14.768 668.806 14.6667 669.115 14.464C669.435 14.2613 669.595 13.9787 669.595 13.616C669.595 13.3493 669.499 13.1413 669.307 12.992C669.115 12.8427 668.859 12.7307 668.539 12.656C668.23 12.5813 667.883 12.5173 667.499 12.464C667.115 12.4 666.731 12.3253 666.347 12.24C665.963 12.144 665.611 12.016 665.291 11.856C664.971 11.6853 664.715 11.456 664.523 11.168C664.331 10.8693 664.235 10.4747 664.235 9.984C664.235 9.472 664.379 9.024 664.667 8.64C664.955 8.256 665.36 7.96267 665.883 7.76C666.416 7.54667 667.046 7.44 667.771 7.44C668.326 7.44 668.886 7.50933 669.451 7.648C670.027 7.776 670.496 7.96267 670.859 8.208L670.203 9.424C669.819 9.168 669.419 8.992 669.003 8.896C668.587 8.8 668.171 8.752 667.755 8.752C667.083 8.752 666.582 8.864 666.251 9.088C665.92 9.30133 665.755 9.57867 665.755 9.92C665.755 10.208 665.851 10.432 666.043 10.592C666.246 10.7413 666.502 10.8587 666.811 10.944C667.131 11.0293 667.483 11.104 667.867 11.168C668.251 11.2213 668.635 11.296 669.019 11.392C669.403 11.4773 669.75 11.6 670.059 11.76C670.379 11.92 670.635 12.144 670.827 12.432C671.03 12.72 671.131 13.104 671.131 13.584C671.131 14.096 670.982 14.5387 670.683 14.912C670.384 15.2853 669.963 15.5787 669.419 15.792C668.875 15.9947 668.224 16.096 667.467 16.096Z" fill="#938C8C"/>
<path d="M530.985 16L536.057 4.8H537.641L542.729 16H541.049L536.521 5.696H537.161L532.633 16H530.985ZM533.145 13.2L533.577 11.92H539.881L540.345 13.2H533.145ZM547.602 16.096C546.78 16.096 546.044 15.9147 545.394 15.552C544.754 15.1893 544.247 14.6827 543.874 14.032C543.5 13.3813 543.314 12.624 543.314 11.76C543.314 10.896 543.5 10.144 543.874 9.504C544.247 8.85333 544.754 8.34667 545.394 7.984C546.044 7.62133 546.78 7.44 547.602 7.44C548.316 7.44 548.962 7.6 549.538 7.92C550.114 8.24 550.572 8.72 550.914 9.36C551.266 10 551.442 10.8 551.442 11.76C551.442 12.72 551.271 13.52 550.93 14.16C550.599 14.8 550.146 15.2853 549.57 15.616C548.994 15.936 548.338 16.096 547.602 16.096ZM547.73 14.752C548.263 14.752 548.743 14.6293 549.17 14.384C549.607 14.1387 549.948 13.792 550.194 13.344C550.45 12.8853 550.578 12.3573 550.578 11.76C550.578 11.152 550.45 10.6293 550.194 10.192C549.948 9.744 549.607 9.39733 549.17 9.152C548.743 8.90667 548.263 8.784 547.73 8.784C547.186 8.784 546.7 8.90667 546.274 9.152C545.847 9.39733 545.506 9.744 545.25 10.192C544.994 10.6293 544.866 11.152 544.866 11.76C544.866 12.3573 544.994 12.8853 545.25 13.344C545.506 13.792 545.847 14.1387 546.274 14.384C546.7 14.6293 547.186 14.752 547.73 14.752ZM550.626 16V13.712L550.722 11.744L550.562 9.776V4.128H552.098V16H550.626ZM557.436 16.096C556.732 16.096 556.06 16 555.42 15.808C554.791 15.616 554.295 15.3813 553.932 15.104L554.572 13.888C554.935 14.1333 555.383 14.3413 555.916 14.512C556.449 14.6827 556.993 14.768 557.548 14.768C558.263 14.768 558.775 14.6667 559.084 14.464C559.404 14.2613 559.564 13.9787 559.564 13.616C559.564 13.3493 559.468 13.1413 559.276 12.992C559.084 12.8427 558.828 12.7307 558.508 12.656C558.199 12.5813 557.852 12.5173 557.468 12.464C557.084 12.4 556.7 12.3253 556.316 12.24C555.932 12.144 555.58 12.016 555.26 11.856C554.94 11.6853 554.684 11.456 554.492 11.168C554.3 10.8693 554.204 10.4747 554.204 9.984C554.204 9.472 554.348 9.024 554.636 8.64C554.924 8.256 555.329 7.96267 555.852 7.76C556.385 7.54667 557.015 7.44 557.74 7.44C558.295 7.44 558.855 7.50933 559.42 7.648C559.996 7.776 560.465 7.96267 560.828 8.208L560.172 9.424C559.788 9.168 559.388 8.992 558.972 8.896C558.556 8.8 558.14 8.752 557.724 8.752C557.052 8.752 556.551 8.864 556.22 9.088C555.889 9.30133 555.724 9.57867 555.724 9.92C555.724 10.208 555.82 10.432 556.012 10.592C556.215 10.7413 556.471 10.8587 556.78 10.944C557.1 11.0293 557.452 11.104 557.836 11.168C558.22 11.2213 558.604 11.296 558.988 11.392C559.372 11.4773 559.719 11.6 560.028 11.76C560.348 11.92 560.604 12.144 560.796 12.432C560.999 12.72 561.1 13.104 561.1 13.584C561.1 14.096 560.951 14.5387 560.652 14.912C560.353 15.2853 559.932 15.5787 559.388 15.792C558.844 15.9947 558.193 16.096 557.436 16.096Z" fill="#938C8C"/>
<line x1="567.414" y1="9.94348" x2="573.445" y2="15.5101" stroke="#938C8C" stroke-width="2" stroke-linecap="round"/>
<line x1="1" y1="-1" x2="9.20695" y2="-1" transform="matrix(-0.734803 0.67828 0.67828 0.734803 581.001 10)" stroke="#938C8C" stroke-width="2" stroke-linecap="round"/>
</svg>
