<svg width="378" height="16" viewBox="0 0 378 16" fill="none" xmlns="http://www.w3.org/2000/svg">
<path d="M6.464 12.048C5.664 12.048 4.92267 11.904 4.24 11.616C3.55733 11.328 2.96 10.928 2.448 10.416C1.936 9.89333 1.536 9.29067 1.248 8.608C0.970667 7.92533 0.832 7.18933 0.832 6.4C0.832 5.61067 0.976 4.87467 1.264 4.192C1.552 3.50933 1.952 2.912 2.464 2.4C2.976 1.87733 3.57333 1.472 4.256 1.184C4.94933 0.896 5.696 0.752 6.496 0.752C7.296 0.752 8.03733 0.896 8.72 1.184C9.41333 1.46133 10.0107 1.856 10.512 2.368C11.024 2.88 11.4187 3.47733 11.696 4.16C11.984 4.832 12.128 5.568 12.128 6.368C12.128 7.168 11.984 7.91467 11.696 8.608C11.408 9.29067 11.0027 9.89333 10.48 10.416C9.968 10.928 9.37067 11.328 8.688 11.616C8.00533 11.904 7.264 12.048 6.464 12.048ZM6.448 11.456C7.17333 11.456 7.84 11.328 8.448 11.072C9.056 10.8053 9.58933 10.4427 10.048 9.984C10.5173 9.52533 10.88 8.98667 11.136 8.368C11.392 7.73867 11.52 7.072 11.52 6.368C11.52 5.65333 11.392 4.992 11.136 4.384C10.8907 3.776 10.5387 3.24267 10.08 2.784C9.632 2.32533 9.09867 1.97333 8.48 1.728C7.872 1.472 7.21067 1.344 6.496 1.344C5.77067 1.344 5.09867 1.472 4.48 1.728C3.86133 1.984 3.32267 2.34667 2.864 2.816C2.416 3.27467 2.064 3.808 1.808 4.416C1.552 5.024 1.424 5.68533 1.424 6.4C1.424 7.104 1.552 7.76533 1.808 8.384C2.064 8.992 2.416 9.53067 2.864 10C3.32267 10.4587 3.856 10.816 4.464 11.072C5.08267 11.328 5.744 11.456 6.448 11.456ZM6.608 9.728C5.968 9.728 5.39733 9.58933 4.896 9.312C4.39467 9.024 4 8.62933 3.712 8.128C3.424 7.62667 3.28 7.05067 3.28 6.4C3.28 5.74933 3.424 5.17333 3.712 4.672C4 4.17067 4.39467 3.78133 4.896 3.504C5.39733 3.216 5.968 3.072 6.608 3.072C7.152 3.072 7.64267 3.184 8.08 3.408C8.528 3.62133 8.88533 3.92 9.152 4.304L8.464 4.816C8.24 4.50667 7.968 4.27733 7.648 4.128C7.328 3.97867 6.976 3.904 6.592 3.904C6.13333 3.904 5.72267 4.01067 5.36 4.224C5.008 4.42667 4.72533 4.71467 4.512 5.088C4.29867 5.46133 4.192 5.89867 4.192 6.4C4.192 6.90133 4.29867 7.33867 4.512 7.712C4.72533 8.08533 5.008 8.37867 5.36 8.592C5.72267 8.79467 6.13333 8.896 6.592 8.896C6.976 8.896 7.328 8.82133 7.648 8.672C7.968 8.52267 8.24 8.29333 8.464 7.984L9.152 8.48C8.88533 8.87467 8.528 9.184 8.08 9.408C7.64267 9.62133 7.152 9.728 6.608 9.728ZM17.749 12V11.184L22.405 6.624C22.8317 6.208 23.1517 5.84533 23.365 5.536C23.5783 5.216 23.7223 4.91733 23.797 4.64C23.8717 4.36267 23.909 4.10133 23.909 3.856C23.909 3.20533 23.685 2.69333 23.237 2.32C22.7997 1.94667 22.149 1.76 21.285 1.76C20.6237 1.76 20.037 1.86133 19.525 2.064C19.0237 2.26667 18.5917 2.58133 18.229 3.008L17.413 2.304C17.8503 1.792 18.4103 1.39733 19.093 1.12C19.7757 0.842666 20.5383 0.704 21.381 0.704C22.1383 0.704 22.7943 0.826666 23.349 1.072C23.9037 1.30667 24.3303 1.65333 24.629 2.112C24.9383 2.57067 25.093 3.10933 25.093 3.728C25.093 4.09067 25.0397 4.448 24.933 4.8C24.837 5.152 24.6557 5.52533 24.389 5.92C24.133 6.304 23.7543 6.74133 23.253 7.232L18.981 11.424L18.661 10.976H25.605V12H17.749ZM31.4835 12.096C30.6195 12.096 29.8515 11.872 29.1795 11.424C28.5075 10.9653 27.9795 10.3147 27.5955 9.472C27.2115 8.61867 27.0195 7.59467 27.0195 6.4C27.0195 5.20533 27.2115 4.18667 27.5955 3.344C27.9795 2.49067 28.5075 1.84 29.1795 1.392C29.8515 0.933333 30.6195 0.704 31.4835 0.704C32.3475 0.704 33.1155 0.933333 33.7875 1.392C34.4595 1.84 34.9875 2.49067 35.3715 3.344C35.7662 4.18667 35.9635 5.20533 35.9635 6.4C35.9635 7.59467 35.7662 8.61867 35.3715 9.472C34.9875 10.3147 34.4595 10.9653 33.7875 11.424C33.1155 11.872 32.3475 12.096 31.4835 12.096ZM31.4835 11.04C32.1448 11.04 32.7208 10.864 33.2115 10.512C33.7022 10.1493 34.0862 9.62667 34.3635 8.944C34.6408 8.25067 34.7795 7.40267 34.7795 6.4C34.7795 5.39733 34.6408 4.55467 34.3635 3.872C34.0862 3.17867 33.7022 2.656 33.2115 2.304C32.7208 1.94133 32.1448 1.76 31.4835 1.76C30.8435 1.76 30.2728 1.94133 29.7715 2.304C29.2702 2.656 28.8808 3.17867 28.6035 3.872C28.3262 4.55467 28.1875 5.39733 28.1875 6.4C28.1875 7.40267 28.3262 8.25067 28.6035 8.944C28.8808 9.62667 29.2702 10.1493 29.7715 10.512C30.2728 10.864 30.8435 11.04 31.4835 11.04ZM37.4053 12V11.184L42.0613 6.624C42.4879 6.208 42.8079 5.84533 43.0213 5.536C43.2346 5.216 43.3786 4.91733 43.4533 4.64C43.5279 4.36267 43.5653 4.10133 43.5653 3.856C43.5653 3.20533 43.3413 2.69333 42.8933 2.32C42.4559 1.94667 41.8053 1.76 40.9413 1.76C40.2799 1.76 39.6933 1.86133 39.1813 2.064C38.6799 2.26667 38.2479 2.58133 37.8853 3.008L37.0693 2.304C37.5066 1.792 38.0666 1.39733 38.7493 1.12C39.4319 0.842666 40.1946 0.704 41.0373 0.704C41.7946 0.704 42.4506 0.826666 43.0053 1.072C43.5599 1.30667 43.9866 1.65333 44.2853 2.112C44.5946 2.57067 44.7493 3.10933 44.7493 3.728C44.7493 4.09067 44.6959 4.448 44.5893 4.8C44.4933 5.152 44.3119 5.52533 44.0453 5.92C43.7893 6.304 43.4106 6.74133 42.9093 7.232L38.6373 11.424L38.3173 10.976H45.2613V12H37.4053ZM48.659 12V1.28L49.171 1.824H46.019V0.799999H49.811V12H48.659ZM56.8038 8.16V7.168H60.9958V8.16H56.8038ZM66.7646 12V11.184L71.4206 6.624C71.8473 6.208 72.1673 5.84533 72.3806 5.536C72.594 5.216 72.738 4.91733 72.8126 4.64C72.8873 4.36267 72.9246 4.10133 72.9246 3.856C72.9246 3.20533 72.7006 2.69333 72.2526 2.32C71.8153 1.94667 71.1646 1.76 70.3006 1.76C69.6393 1.76 69.0526 1.86133 68.5406 2.064C68.0393 2.26667 67.6073 2.58133 67.2446 3.008L66.4286 2.304C66.866 1.792 67.426 1.39733 68.1086 1.12C68.7913 0.842666 69.554 0.704 70.3966 0.704C71.154 0.704 71.81 0.826666 72.3646 1.072C72.9193 1.30667 73.346 1.65333 73.6446 2.112C73.954 2.57067 74.1086 3.10933 74.1086 3.728C74.1086 4.09067 74.0553 4.448 73.9486 4.8C73.8526 5.152 73.6713 5.52533 73.4046 5.92C73.1486 6.304 72.77 6.74133 72.2686 7.232L67.9966 11.424L67.6766 10.976H74.6206V12H66.7646ZM80.4991 12.096C79.6351 12.096 78.8671 11.872 78.1951 11.424C77.5231 10.9653 76.9951 10.3147 76.6111 9.472C76.2271 8.61867 76.0351 7.59467 76.0351 6.4C76.0351 5.20533 76.2271 4.18667 76.6111 3.344C76.9951 2.49067 77.5231 1.84 78.1951 1.392C78.8671 0.933333 79.6351 0.704 80.4991 0.704C81.3631 0.704 82.1311 0.933333 82.8031 1.392C83.4751 1.84 84.0031 2.49067 84.3871 3.344C84.7818 4.18667 84.9791 5.20533 84.9791 6.4C84.9791 7.59467 84.7818 8.61867 84.3871 9.472C84.0031 10.3147 83.4751 10.9653 82.8031 11.424C82.1311 11.872 81.3631 12.096 80.4991 12.096ZM80.4991 11.04C81.1605 11.04 81.7365 10.864 82.2271 10.512C82.7178 10.1493 83.1018 9.62667 83.3791 8.944C83.6565 8.25067 83.7951 7.40267 83.7951 6.4C83.7951 5.39733 83.6565 4.55467 83.3791 3.872C83.1018 3.17867 82.7178 2.656 82.2271 2.304C81.7365 1.94133 81.1605 1.76 80.4991 1.76C79.8591 1.76 79.2885 1.94133 78.7871 2.304C78.2858 2.656 77.8965 3.17867 77.6191 3.872C77.3418 4.55467 77.2031 5.39733 77.2031 6.4C77.2031 7.40267 77.3418 8.25067 77.6191 8.944C77.8965 9.62667 78.2858 10.1493 78.7871 10.512C79.2885 10.864 79.8591 11.04 80.4991 11.04ZM86.4209 12V11.184L91.0769 6.624C91.5035 6.208 91.8235 5.84533 92.0369 5.536C92.2502 5.216 92.3942 4.91733 92.4689 4.64C92.5435 4.36267 92.5809 4.10133 92.5809 3.856C92.5809 3.20533 92.3569 2.69333 91.9089 2.32C91.4715 1.94667 90.8209 1.76 89.9569 1.76C89.2955 1.76 88.7089 1.86133 88.1969 2.064C87.6955 2.26667 87.2635 2.58133 86.9009 3.008L86.0849 2.304C86.5222 1.792 87.0822 1.39733 87.7649 1.12C88.4475 0.842666 89.2102 0.704 90.0529 0.704C90.8102 0.704 91.4662 0.826666 92.0209 1.072C92.5755 1.30667 93.0022 1.65333 93.3009 2.112C93.6102 2.57067 93.7649 3.10933 93.7649 3.728C93.7649 4.09067 93.7115 4.448 93.6049 4.8C93.5089 5.152 93.3275 5.52533 93.0609 5.92C92.8049 6.304 92.4262 6.74133 91.9249 7.232L87.6529 11.424L87.3329 10.976H94.2769V12H86.4209ZM95.5146 12V11.184L100.171 6.624C100.597 6.208 100.917 5.84533 101.131 5.536C101.344 5.216 101.488 4.91733 101.563 4.64C101.637 4.36267 101.675 4.10133 101.675 3.856C101.675 3.20533 101.451 2.69333 101.003 2.32C100.565 1.94667 99.9146 1.76 99.0506 1.76C98.3893 1.76 97.8026 1.86133 97.2906 2.064C96.7893 2.26667 96.3573 2.58133 95.9946 3.008L95.1786 2.304C95.616 1.792 96.176 1.39733 96.8586 1.12C97.5413 0.842666 98.304 0.704 99.1466 0.704C99.904 0.704 100.56 0.826666 101.115 1.072C101.669 1.30667 102.096 1.65333 102.395 2.112C102.704 2.57067 102.859 3.10933 102.859 3.728C102.859 4.09067 102.805 4.448 102.699 4.8C102.603 5.152 102.421 5.52533 102.155 5.92C101.899 6.304 101.52 6.74133 101.019 7.232L96.7466 11.424L96.4266 10.976H103.371V12H95.5146ZM109.948 12V2.544C109.948 1.79733 110.167 1.19467 110.604 0.735999C111.041 0.277333 111.671 0.0479994 112.492 0.0479994C112.812 0.0479994 113.121 0.0906661 113.42 0.176C113.719 0.261333 113.969 0.394666 114.172 0.575999L113.788 1.424C113.628 1.28533 113.441 1.184 113.228 1.12C113.015 1.04533 112.785 1.008 112.54 1.008C112.06 1.008 111.692 1.14133 111.436 1.408C111.18 1.67467 111.052 2.06933 111.052 2.592V3.872L111.084 4.4V12H109.948ZM108.444 4.544V3.6H113.644V4.544H108.444ZM118.461 12.08C117.65 12.08 116.92 11.8987 116.269 11.536C115.629 11.1627 115.122 10.656 114.749 10.016C114.376 9.36533 114.189 8.624 114.189 7.792C114.189 6.94933 114.376 6.208 114.749 5.568C115.122 4.928 115.629 4.42667 116.269 4.064C116.909 3.70133 117.64 3.52 118.461 3.52C119.293 3.52 120.029 3.70133 120.669 4.064C121.32 4.42667 121.826 4.928 122.189 5.568C122.562 6.208 122.749 6.94933 122.749 7.792C122.749 8.624 122.562 9.36533 122.189 10.016C121.826 10.656 121.32 11.1627 120.669 11.536C120.018 11.8987 119.282 12.08 118.461 12.08ZM118.461 11.072C119.069 11.072 119.608 10.9387 120.077 10.672C120.546 10.3947 120.914 10.0107 121.181 9.52C121.458 9.01867 121.597 8.44267 121.597 7.792C121.597 7.13067 121.458 6.55467 121.181 6.064C120.914 5.57333 120.546 5.19467 120.077 4.928C119.608 4.65067 119.074 4.512 118.477 4.512C117.88 4.512 117.346 4.65067 116.877 4.928C116.408 5.19467 116.034 5.57333 115.757 6.064C115.48 6.55467 115.341 7.13067 115.341 7.792C115.341 8.44267 115.48 9.01867 115.757 9.52C116.034 10.0107 116.408 10.3947 116.877 10.672C117.346 10.9387 117.874 11.072 118.461 11.072ZM128.556 12.08C127.724 12.08 126.978 11.8987 126.316 11.536C125.666 11.1627 125.154 10.656 124.78 10.016C124.407 9.36533 124.22 8.624 124.22 7.792C124.22 6.94933 124.407 6.208 124.78 5.568C125.154 4.928 125.666 4.42667 126.316 4.064C126.978 3.70133 127.724 3.52 128.556 3.52C129.271 3.52 129.916 3.65867 130.492 3.936C131.068 4.21333 131.522 4.62933 131.852 5.184L131.004 5.76C130.716 5.33333 130.359 5.01867 129.932 4.816C129.506 4.61333 129.042 4.512 128.54 4.512C127.943 4.512 127.404 4.65067 126.924 4.928C126.444 5.19467 126.066 5.57333 125.788 6.064C125.511 6.55467 125.372 7.13067 125.372 7.792C125.372 8.45333 125.511 9.02933 125.788 9.52C126.066 10.0107 126.444 10.3947 126.924 10.672C127.404 10.9387 127.943 11.072 128.54 11.072C129.042 11.072 129.506 10.9707 129.932 10.768C130.359 10.5653 130.716 10.256 131.004 9.84L131.852 10.416C131.522 10.96 131.068 11.376 130.492 11.664C129.916 11.9413 129.271 12.08 128.556 12.08ZM139.348 12V10.144L139.3 9.84V6.736C139.3 6.02133 139.097 5.472 138.692 5.088C138.297 4.704 137.705 4.512 136.916 4.512C136.372 4.512 135.855 4.60267 135.364 4.784C134.873 4.96533 134.457 5.20533 134.116 5.504L133.604 4.656C134.031 4.29333 134.543 4.016 135.14 3.824C135.737 3.62133 136.367 3.52 137.028 3.52C138.116 3.52 138.953 3.792 139.54 4.336C140.137 4.86933 140.436 5.68533 140.436 6.784V12H139.348ZM136.452 12.08C135.823 12.08 135.273 11.9787 134.804 11.776C134.345 11.5627 133.993 11.2747 133.748 10.912C133.503 10.5387 133.38 10.112 133.38 9.632C133.38 9.19467 133.481 8.8 133.684 8.448C133.897 8.08533 134.239 7.79733 134.708 7.584C135.188 7.36 135.828 7.248 136.628 7.248H139.524V8.096H136.66C135.849 8.096 135.284 8.24 134.964 8.528C134.655 8.816 134.5 9.17333 134.5 9.6C134.5 10.08 134.687 10.464 135.06 10.752C135.433 11.04 135.956 11.184 136.628 11.184C137.268 11.184 137.817 11.04 138.276 10.752C138.745 10.4533 139.087 10.0267 139.3 9.472L139.556 10.256C139.343 10.8107 138.969 11.2533 138.436 11.584C137.913 11.9147 137.252 12.08 136.452 12.08ZM143.522 12V0.127999H144.658V12H143.522ZM150.694 12L155.286 5.792V6.704L150.966 0.799999H152.326L155.958 5.728L155.43 5.744L159.062 0.799999H160.342L156.07 6.624V5.792L160.646 12H159.27L155.398 6.736H155.894L152.054 12H150.694ZM171.957 12V10.144L171.909 9.84V6.736C171.909 6.02133 171.707 5.472 171.301 5.088C170.907 4.704 170.315 4.512 169.525 4.512C168.981 4.512 168.464 4.60267 167.973 4.784C167.483 4.96533 167.067 5.20533 166.725 5.504L166.213 4.656C166.64 4.29333 167.152 4.016 167.749 3.824C168.347 3.62133 168.976 3.52 169.637 3.52C170.725 3.52 171.563 3.792 172.149 4.336C172.747 4.86933 173.045 5.68533 173.045 6.784V12H171.957ZM169.061 12.08C168.432 12.08 167.883 11.9787 167.413 11.776C166.955 11.5627 166.603 11.2747 166.357 10.912C166.112 10.5387 165.989 10.112 165.989 9.632C165.989 9.19467 166.091 8.8 166.293 8.448C166.507 8.08533 166.848 7.79733 167.317 7.584C167.797 7.36 168.437 7.248 169.237 7.248H172.133V8.096H169.269C168.459 8.096 167.893 8.24 167.573 8.528C167.264 8.816 167.109 9.17333 167.109 9.6C167.109 10.08 167.296 10.464 167.669 10.752C168.043 11.04 168.565 11.184 169.237 11.184C169.877 11.184 170.427 11.04 170.885 10.752C171.355 10.4533 171.696 10.0267 171.909 9.472L172.165 10.256C171.952 10.8107 171.579 11.2533 171.045 11.584C170.523 11.9147 169.861 12.08 169.061 12.08ZM183.902 15.184C183.134 15.184 182.398 15.072 181.694 14.848C180.99 14.624 180.42 14.304 179.982 13.888L180.558 13.024C180.953 13.376 181.438 13.6533 182.014 13.856C182.601 14.0693 183.22 14.176 183.87 14.176C184.937 14.176 185.721 13.9253 186.222 13.424C186.724 12.9333 186.974 12.1653 186.974 11.12V9.024L187.134 7.584L187.022 6.144V3.6H188.11V10.976C188.11 12.4267 187.753 13.488 187.038 14.16C186.334 14.8427 185.289 15.184 183.902 15.184ZM183.694 11.68C182.894 11.68 182.174 11.5093 181.534 11.168C180.894 10.816 180.388 10.3307 180.014 9.712C179.652 9.09333 179.47 8.384 179.47 7.584C179.47 6.784 179.652 6.08 180.014 5.472C180.388 4.85333 180.894 4.37333 181.534 4.032C182.174 3.69067 182.894 3.52 183.694 3.52C184.441 3.52 185.113 3.67467 185.71 3.984C186.308 4.29333 186.782 4.752 187.134 5.36C187.486 5.968 187.662 6.70933 187.662 7.584C187.662 8.45867 187.486 9.2 187.134 9.808C186.782 10.416 186.308 10.88 185.71 11.2C185.113 11.52 184.441 11.68 183.694 11.68ZM183.806 10.672C184.425 10.672 184.974 10.544 185.454 10.288C185.934 10.0213 186.313 9.65867 186.59 9.2C186.868 8.73067 187.006 8.192 187.006 7.584C187.006 6.976 186.868 6.44267 186.59 5.984C186.313 5.52533 185.934 5.168 185.454 4.912C184.974 4.64533 184.425 4.512 183.806 4.512C183.198 4.512 182.649 4.64533 182.158 4.912C181.678 5.168 181.3 5.52533 181.022 5.984C180.756 6.44267 180.622 6.976 180.622 7.584C180.622 8.192 180.756 8.73067 181.022 9.2C181.3 9.65867 181.678 10.0213 182.158 10.288C182.649 10.544 183.198 10.672 183.806 10.672ZM194.84 12.08C193.965 12.08 193.197 11.8987 192.536 11.536C191.874 11.1627 191.357 10.656 190.984 10.016C190.61 9.36533 190.424 8.624 190.424 7.792C190.424 6.96 190.6 6.224 190.952 5.584C191.314 4.944 191.805 4.44267 192.424 4.08C193.053 3.70667 193.757 3.52 194.536 3.52C195.325 3.52 196.024 3.70133 196.632 4.064C197.25 4.416 197.736 4.91733 198.088 5.568C198.44 6.208 198.616 6.94933 198.616 7.792C198.616 7.84533 198.61 7.904 198.6 7.968C198.6 8.02133 198.6 8.08 198.6 8.144H191.288V7.296H197.992L197.544 7.632C197.544 7.024 197.41 6.48533 197.144 6.016C196.888 5.536 196.536 5.16267 196.088 4.896C195.64 4.62933 195.122 4.496 194.536 4.496C193.96 4.496 193.442 4.62933 192.984 4.896C192.525 5.16267 192.168 5.536 191.912 6.016C191.656 6.496 191.528 7.04533 191.528 7.664V7.84C191.528 8.48 191.666 9.04533 191.944 9.536C192.232 10.016 192.626 10.3947 193.128 10.672C193.64 10.9387 194.221 11.072 194.872 11.072C195.384 11.072 195.858 10.9813 196.296 10.8C196.744 10.6187 197.128 10.3413 197.448 9.968L198.088 10.704C197.714 11.152 197.245 11.4933 196.68 11.728C196.125 11.9627 195.512 12.08 194.84 12.08ZM205.216 3.52C205.898 3.52 206.496 3.65333 207.008 3.92C207.53 4.176 207.936 4.57067 208.224 5.104C208.522 5.63733 208.672 6.30933 208.672 7.12V12H207.536V7.232C207.536 6.34667 207.312 5.68 206.864 5.232C206.426 4.77333 205.808 4.544 205.008 4.544C204.41 4.544 203.888 4.66667 203.44 4.912C203.002 5.14667 202.661 5.49333 202.416 5.952C202.181 6.4 202.064 6.944 202.064 7.584V12H200.928V3.6H202.016V5.904L201.84 5.472C202.106 4.864 202.533 4.38933 203.12 4.048C203.706 3.696 204.405 3.52 205.216 3.52ZM215.228 12.08C214.396 12.08 213.65 11.8987 212.988 11.536C212.338 11.1627 211.826 10.656 211.452 10.016C211.079 9.36533 210.892 8.624 210.892 7.792C210.892 6.94933 211.079 6.208 211.452 5.568C211.826 4.928 212.338 4.42667 212.988 4.064C213.65 3.70133 214.396 3.52 215.228 3.52C215.943 3.52 216.588 3.65867 217.164 3.936C217.74 4.21333 218.194 4.62933 218.524 5.184L217.676 5.76C217.388 5.33333 217.031 5.01867 216.604 4.816C216.178 4.61333 215.714 4.512 215.212 4.512C214.615 4.512 214.076 4.65067 213.596 4.928C213.116 5.19467 212.738 5.57333 212.46 6.064C212.183 6.55467 212.044 7.13067 212.044 7.792C212.044 8.45333 212.183 9.02933 212.46 9.52C212.738 10.0107 213.116 10.3947 213.596 10.672C214.076 10.9387 214.615 11.072 215.212 11.072C215.714 11.072 216.178 10.9707 216.604 10.768C217.031 10.5653 217.388 10.256 217.676 9.84L218.524 10.416C218.194 10.96 217.74 11.376 217.164 11.664C216.588 11.9413 215.943 12.08 215.228 12.08ZM220.695 15.184C220.3 15.184 219.922 15.12 219.559 14.992C219.207 14.864 218.903 14.672 218.647 14.416L219.175 13.568C219.388 13.7707 219.618 13.9253 219.863 14.032C220.119 14.1493 220.402 14.208 220.711 14.208C221.084 14.208 221.404 14.1013 221.671 13.888C221.948 13.6853 222.21 13.3227 222.455 12.8L222.999 11.568L223.127 11.392L226.583 3.6H227.703L223.495 13.008C223.26 13.552 222.999 13.984 222.711 14.304C222.434 14.624 222.13 14.848 221.799 14.976C221.468 15.1147 221.1 15.184 220.695 15.184ZM222.935 12.24L219.063 3.6H220.247L223.671 11.312L222.935 12.24ZM231.938 12L237.058 0.799999H238.226L243.346 12H242.098L237.394 1.488H237.874L233.17 12H231.938ZM233.954 9.008L234.306 8.048H240.818L241.17 9.008H233.954ZM244.959 12V0.127999H246.095V12H244.959ZM249.256 12V0.127999H250.392V12H249.256ZM257.98 12V0.799999H262.172C263.122 0.799999 263.938 0.954666 264.62 1.264C265.303 1.56267 265.826 2 266.188 2.576C266.562 3.14133 266.748 3.82933 266.748 4.64C266.748 5.42933 266.562 6.112 266.188 6.688C265.826 7.25333 265.303 7.69067 264.62 8C263.938 8.29867 263.122 8.448 262.172 8.448H258.636L259.164 7.904V12H257.98ZM265.628 12L262.748 7.936H264.028L266.924 12H265.628ZM259.164 8L258.636 7.44H262.14C263.26 7.44 264.108 7.19467 264.684 6.704C265.271 6.21333 265.564 5.52533 265.564 4.64C265.564 3.744 265.271 3.05067 264.684 2.56C264.108 2.06933 263.26 1.824 262.14 1.824H258.636L259.164 1.264V8ZM269.303 12V3.6H270.439V12H269.303ZM269.879 1.744C269.644 1.744 269.447 1.664 269.287 1.504C269.127 1.344 269.047 1.152 269.047 0.927999C269.047 0.703999 269.127 0.517332 269.287 0.367999C269.447 0.207999 269.644 0.127999 269.879 0.127999C270.113 0.127999 270.311 0.202666 270.471 0.351999C270.631 0.501333 270.711 0.687999 270.711 0.912C270.711 1.14667 270.631 1.344 270.471 1.504C270.321 1.664 270.124 1.744 269.879 1.744ZM277.184 15.184C276.416 15.184 275.68 15.072 274.976 14.848C274.272 14.624 273.701 14.304 273.264 13.888L273.84 13.024C274.234 13.376 274.72 13.6533 275.296 13.856C275.882 14.0693 276.501 14.176 277.152 14.176C278.218 14.176 279.002 13.9253 279.504 13.424C280.005 12.9333 280.256 12.1653 280.256 11.12V9.024L280.416 7.584L280.304 6.144V3.6H281.392V10.976C281.392 12.4267 281.034 13.488 280.32 14.16C279.616 14.8427 278.57 15.184 277.184 15.184ZM276.976 11.68C276.176 11.68 275.456 11.5093 274.816 11.168C274.176 10.816 273.669 10.3307 273.296 9.712C272.933 9.09333 272.752 8.384 272.752 7.584C272.752 6.784 272.933 6.08 273.296 5.472C273.669 4.85333 274.176 4.37333 274.816 4.032C275.456 3.69067 276.176 3.52 276.976 3.52C277.722 3.52 278.394 3.67467 278.992 3.984C279.589 4.29333 280.064 4.752 280.416 5.36C280.768 5.968 280.944 6.70933 280.944 7.584C280.944 8.45867 280.768 9.2 280.416 9.808C280.064 10.416 279.589 10.88 278.992 11.2C278.394 11.52 277.722 11.68 276.976 11.68ZM277.088 10.672C277.706 10.672 278.256 10.544 278.736 10.288C279.216 10.0213 279.594 9.65867 279.872 9.2C280.149 8.73067 280.288 8.192 280.288 7.584C280.288 6.976 280.149 6.44267 279.872 5.984C279.594 5.52533 279.216 5.168 278.736 4.912C278.256 4.64533 277.706 4.512 277.088 4.512C276.48 4.512 275.93 4.64533 275.44 4.912C274.96 5.168 274.581 5.52533 274.304 5.984C274.037 6.44267 273.904 6.976 273.904 7.584C273.904 8.192 274.037 8.73067 274.304 9.2C274.581 9.65867 274.96 10.0213 275.44 10.288C275.93 10.544 276.48 10.672 277.088 10.672ZM288.841 3.52C289.523 3.52 290.121 3.65333 290.633 3.92C291.155 4.176 291.561 4.57067 291.849 5.104C292.147 5.63733 292.297 6.30933 292.297 7.12V12H291.161V7.232C291.161 6.34667 290.937 5.68 290.489 5.232C290.051 4.77333 289.433 4.544 288.633 4.544C288.035 4.544 287.513 4.66667 287.065 4.912C286.627 5.14667 286.286 5.49333 286.041 5.952C285.806 6.4 285.689 6.944 285.689 7.584V12H284.553V0.127999H285.689V5.904L285.465 5.472C285.731 4.864 286.158 4.38933 286.745 4.048C287.331 3.696 288.03 3.52 288.841 3.52ZM298.021 12.08C297.232 12.08 296.624 11.8667 296.197 11.44C295.771 11.0133 295.557 10.4107 295.557 9.632V1.744H296.693V9.568C296.693 10.0587 296.816 10.4373 297.061 10.704C297.317 10.9707 297.68 11.104 298.149 11.104C298.651 11.104 299.067 10.96 299.397 10.672L299.797 11.488C299.573 11.6907 299.301 11.84 298.981 11.936C298.672 12.032 298.352 12.08 298.021 12.08ZM294.053 4.544V3.6H299.253V4.544H294.053ZM306.293 12V0.799999H310.485C311.434 0.799999 312.25 0.954666 312.933 1.264C313.615 1.56267 314.138 2 314.501 2.576C314.874 3.14133 315.061 3.82933 315.061 4.64C315.061 5.42933 314.874 6.112 314.501 6.688C314.138 7.25333 313.615 7.69067 312.933 8C312.25 8.29867 311.434 8.448 310.485 8.448H306.949L307.477 7.904V12H306.293ZM313.941 12L311.061 7.936H312.341L315.237 12H313.941ZM307.477 8L306.949 7.44H310.453C311.573 7.44 312.421 7.19467 312.997 6.704C313.583 6.21333 313.877 5.52533 313.877 4.64C313.877 3.744 313.583 3.05067 312.997 2.56C312.421 2.06933 311.573 1.824 310.453 1.824H306.949L307.477 1.264V8ZM321.183 12.08C320.309 12.08 319.541 11.8987 318.879 11.536C318.218 11.1627 317.701 10.656 317.327 10.016C316.954 9.36533 316.767 8.624 316.767 7.792C316.767 6.96 316.943 6.224 317.295 5.584C317.658 4.944 318.149 4.44267 318.767 4.08C319.397 3.70667 320.101 3.52 320.879 3.52C321.669 3.52 322.367 3.70133 322.975 4.064C323.594 4.416 324.079 4.91733 324.431 5.568C324.783 6.208 324.959 6.94933 324.959 7.792C324.959 7.84533 324.954 7.904 324.943 7.968C324.943 8.02133 324.943 8.08 324.943 8.144H317.631V7.296H324.335L323.887 7.632C323.887 7.024 323.754 6.48533 323.487 6.016C323.231 5.536 322.879 5.16267 322.431 4.896C321.983 4.62933 321.466 4.496 320.879 4.496C320.303 4.496 319.786 4.62933 319.327 4.896C318.869 5.16267 318.511 5.536 318.255 6.016C317.999 6.496 317.871 7.04533 317.871 7.664V7.84C317.871 8.48 318.01 9.04533 318.287 9.536C318.575 10.016 318.97 10.3947 319.471 10.672C319.983 10.9387 320.565 11.072 321.215 11.072C321.727 11.072 322.202 10.9813 322.639 10.8C323.087 10.6187 323.471 10.3413 323.791 9.968L324.431 10.704C324.058 11.152 323.589 11.4933 323.023 11.728C322.469 11.9627 321.855 12.08 321.183 12.08ZM329.528 12.08C328.834 12.08 328.178 11.984 327.56 11.792C326.941 11.5893 326.456 11.3387 326.104 11.04L326.616 10.144C326.957 10.4 327.394 10.624 327.928 10.816C328.461 10.9973 329.021 11.088 329.608 11.088C330.408 11.088 330.984 10.9653 331.336 10.72C331.688 10.464 331.864 10.128 331.864 9.712C331.864 9.40267 331.762 9.16267 331.56 8.992C331.368 8.81067 331.112 8.67733 330.792 8.592C330.472 8.496 330.114 8.416 329.72 8.352C329.325 8.288 328.93 8.21333 328.536 8.128C328.152 8.04267 327.8 7.92 327.48 7.76C327.16 7.58933 326.898 7.36 326.696 7.072C326.504 6.784 326.408 6.4 326.408 5.92C326.408 5.46133 326.536 5.05067 326.792 4.688C327.048 4.32533 327.421 4.04267 327.912 3.84C328.413 3.62667 329.021 3.52 329.736 3.52C330.28 3.52 330.824 3.59467 331.368 3.744C331.912 3.88267 332.36 4.06933 332.712 4.304L332.216 5.216C331.842 4.96 331.442 4.77867 331.016 4.672C330.589 4.55467 330.162 4.496 329.736 4.496C328.978 4.496 328.418 4.62933 328.056 4.896C327.704 5.152 327.528 5.48267 327.528 5.888C327.528 6.208 327.624 6.45867 327.816 6.64C328.018 6.82133 328.28 6.96533 328.6 7.072C328.93 7.168 329.288 7.248 329.672 7.312C330.066 7.376 330.456 7.456 330.84 7.552C331.234 7.63733 331.592 7.76 331.912 7.92C332.242 8.06933 332.504 8.288 332.696 8.576C332.898 8.85333 333 9.22133 333 9.68C333 10.1707 332.861 10.5973 332.584 10.96C332.317 11.312 331.922 11.5893 331.4 11.792C330.888 11.984 330.264 12.08 329.528 12.08ZM338.652 12.08C337.777 12.08 337.009 11.8987 336.348 11.536C335.687 11.1627 335.169 10.656 334.796 10.016C334.423 9.36533 334.236 8.624 334.236 7.792C334.236 6.96 334.412 6.224 334.764 5.584C335.127 4.944 335.617 4.44267 336.236 4.08C336.865 3.70667 337.569 3.52 338.348 3.52C339.137 3.52 339.836 3.70133 340.444 4.064C341.063 4.416 341.548 4.91733 341.9 5.568C342.252 6.208 342.428 6.94933 342.428 7.792C342.428 7.84533 342.423 7.904 342.412 7.968C342.412 8.02133 342.412 8.08 342.412 8.144H335.1V7.296H341.804L341.356 7.632C341.356 7.024 341.223 6.48533 340.956 6.016C340.7 5.536 340.348 5.16267 339.9 4.896C339.452 4.62933 338.935 4.496 338.348 4.496C337.772 4.496 337.255 4.62933 336.796 4.896C336.337 5.16267 335.98 5.536 335.724 6.016C335.468 6.496 335.34 7.04533 335.34 7.664V7.84C335.34 8.48 335.479 9.04533 335.756 9.536C336.044 10.016 336.439 10.3947 336.94 10.672C337.452 10.9387 338.033 11.072 338.684 11.072C339.196 11.072 339.671 10.9813 340.108 10.8C340.556 10.6187 340.94 10.3413 341.26 9.968L341.9 10.704C341.527 11.152 341.057 11.4933 340.492 11.728C339.937 11.9627 339.324 12.08 338.652 12.08ZM344.74 12V3.6H345.828V5.888L345.716 5.488C345.951 4.848 346.346 4.36267 346.9 4.032C347.455 3.69067 348.143 3.52 348.964 3.52V4.624C348.922 4.624 348.879 4.624 348.836 4.624C348.794 4.61333 348.751 4.608 348.708 4.608C347.823 4.608 347.13 4.88 346.628 5.424C346.127 5.95733 345.876 6.72 345.876 7.712V12H344.74ZM353.557 12L349.829 3.6H351.013L354.437 11.392H353.877L357.349 3.6H358.469L354.725 12H353.557ZM363.402 12.08C362.527 12.08 361.759 11.8987 361.098 11.536C360.437 11.1627 359.919 10.656 359.546 10.016C359.173 9.36533 358.986 8.624 358.986 7.792C358.986 6.96 359.162 6.224 359.514 5.584C359.877 4.944 360.367 4.44267 360.986 4.08C361.615 3.70667 362.319 3.52 363.098 3.52C363.887 3.52 364.586 3.70133 365.194 4.064C365.813 4.416 366.298 4.91733 366.65 5.568C367.002 6.208 367.178 6.94933 367.178 7.792C367.178 7.84533 367.173 7.904 367.162 7.968C367.162 8.02133 367.162 8.08 367.162 8.144H359.85V7.296H366.554L366.106 7.632C366.106 7.024 365.973 6.48533 365.706 6.016C365.45 5.536 365.098 5.16267 364.65 4.896C364.202 4.62933 363.685 4.496 363.098 4.496C362.522 4.496 362.005 4.62933 361.546 4.896C361.087 5.16267 360.73 5.536 360.474 6.016C360.218 6.496 360.09 7.04533 360.09 7.664V7.84C360.09 8.48 360.229 9.04533 360.506 9.536C360.794 10.016 361.189 10.3947 361.69 10.672C362.202 10.9387 362.783 11.072 363.434 11.072C363.946 11.072 364.421 10.9813 364.858 10.8C365.306 10.6187 365.69 10.3413 366.01 9.968L366.65 10.704C366.277 11.152 365.807 11.4933 365.242 11.728C364.687 11.9627 364.074 12.08 363.402 12.08ZM372.834 12.08C372.034 12.08 371.314 11.8987 370.674 11.536C370.045 11.1733 369.549 10.672 369.186 10.032C368.824 9.38133 368.642 8.63467 368.642 7.792C368.642 6.93867 368.824 6.192 369.186 5.552C369.549 4.912 370.045 4.416 370.674 4.064C371.314 3.70133 372.034 3.52 372.834 3.52C373.57 3.52 374.226 3.68533 374.802 4.016C375.389 4.34667 375.853 4.832 376.194 5.472C376.546 6.10133 376.722 6.87467 376.722 7.792C376.722 8.69867 376.552 9.472 376.21 10.112C375.869 10.752 375.405 11.2427 374.818 11.584C374.242 11.9147 373.581 12.08 372.834 12.08ZM372.914 11.072C373.512 11.072 374.045 10.9387 374.514 10.672C374.994 10.3947 375.368 10.0107 375.634 9.52C375.912 9.01867 376.05 8.44267 376.05 7.792C376.05 7.13067 375.912 6.55467 375.634 6.064C375.368 5.57333 374.994 5.19467 374.514 4.928C374.045 4.65067 373.512 4.512 372.914 4.512C372.328 4.512 371.8 4.65067 371.33 4.928C370.861 5.19467 370.488 5.57333 370.21 6.064C369.933 6.55467 369.794 7.13067 369.794 7.792C369.794 8.44267 369.933 9.01867 370.21 9.52C370.488 10.0107 370.861 10.3947 371.33 10.672C371.8 10.9387 372.328 11.072 372.914 11.072ZM376.082 12V9.472L376.194 7.776L376.034 6.08V0.127999H377.17V12H376.082Z" fill="white"/>
</svg>
