<svg width="76" height="20" viewBox="0 0 76 20" fill="none" xmlns="http://www.w3.org/2000/svg">
<path d="M4.54212 0.0233203V1.00623C4.35797 0.985788 4.17276 0.975983 3.98746 0.976862C2.02648 0.976862 0.990532 2.27762 0.990532 4.73834V7.23707H2.80738V8.15865H0.987038V18.9439H0V4.62692C0 3.0446 0.414905 1.79739 1.19929 1.02091C1.88411 0.345486 2.82048 0 3.98396 0C4.18661 0 4.36742 0.00777343 4.54212 0.0233203Z" fill="#282828"/>
<path d="M52.0554 0.0615234H51.0684V18.9872H52.0554V0.0615234Z" fill="#282828"/>
<path d="M59.7109 2.54439C59.5829 2.38696 59.4879 2.20594 59.4313 2.01187C59.3748 1.8178 59.3578 1.61454 59.3814 1.41393C59.405 1.21331 59.4687 1.01934 59.5688 0.843287C59.6689 0.667237 59.8034 0.512625 59.9645 0.388442C60.1256 0.264258 60.31 0.172983 60.5071 0.119923C60.7042 0.0668637 60.91 0.0530792 61.1125 0.0793713C61.315 0.105663 61.5102 0.171508 61.6868 0.273074C61.8633 0.374641 62.0177 0.509903 62.1409 0.670994L66.5083 6.19877C66.5415 6.24109 66.5791 6.28514 66.6157 6.32401C66.0809 6.41033 65.5766 6.62825 65.1492 6.95773C64.7218 7.28721 64.3851 7.71766 64.17 8.2095C64.1423 8.16181 64.111 8.11619 64.0765 8.07303L59.7109 2.54439Z" fill="#282828"/>
<path d="M74.6718 16.5305C74.8004 16.6877 74.896 16.8686 74.9532 17.0627C75.0104 17.2568 75.0279 17.4601 75.0048 17.661C74.9817 17.8618 74.9183 18.0561 74.8185 18.2326C74.7187 18.409 74.5844 18.564 74.4234 18.6886C74.2624 18.8131 74.078 18.9048 73.8808 18.9582C73.6836 19.0116 73.4777 19.0256 73.275 18.9996C73.0722 18.9735 72.8768 18.9078 72.7 18.8062C72.5232 18.7047 72.3687 18.5694 72.2453 18.4083L67.8779 12.8805C67.8062 12.788 67.7224 12.7052 67.6289 12.6343C68.1762 12.5515 68.6928 12.331 69.1292 11.9941C69.5656 11.6571 69.9071 11.2149 70.121 10.71C70.1703 10.8137 70.2313 10.9116 70.3026 11.0019L74.6718 16.5305Z" fill="#282828"/>
<path d="M66.7278 12.6547C66.6476 12.7206 66.575 12.795 66.5112 12.8766L62.1437 18.4044C61.8919 18.723 61.5224 18.9297 61.1165 18.979C60.7106 19.0282 60.3015 18.916 59.9792 18.667C59.657 18.418 59.448 18.0526 59.3982 17.6512C59.3484 17.2498 59.4619 16.8453 59.7137 16.5267L64.0811 10.9989C64.1239 10.9441 64.1627 10.8864 64.1973 10.8262C64.4279 11.318 64.7816 11.7435 65.2248 12.0626C65.668 12.3816 66.1862 12.5836 66.7304 12.6495" fill="#282828"/>
<path d="M67.7352 6.35352C67.7859 6.30641 67.8329 6.25559 67.8759 6.2015L72.2433 0.673728C72.3678 0.516238 72.5224 0.38453 72.6983 0.286123C72.8742 0.187716 73.0681 0.124538 73.2687 0.100197C73.4693 0.0758549 73.6728 0.090826 73.8676 0.144255C74.0624 0.197684 74.2446 0.288525 74.4039 0.411591C74.5631 0.534656 74.6963 0.687537 74.7959 0.861504C74.8954 1.03547 74.9593 1.22712 74.9839 1.4255C75.0085 1.62388 74.9934 1.82512 74.9393 2.01771C74.8853 2.21031 74.7934 2.3905 74.669 2.54799L70.3015 8.07576C70.2381 8.15623 70.1833 8.24308 70.1382 8.33488C69.9398 7.83068 69.6151 7.38455 69.1947 7.0383C68.7742 6.69206 68.2718 6.45703 67.7344 6.35524" fill="#282828"/>
<path d="M69.2236 9.53743C69.2238 9.93481 69.1048 10.3233 68.8816 10.6538C68.6585 10.9843 68.3412 11.2419 67.97 11.3941C67.5988 11.5463 67.1902 11.5862 66.796 11.5088C66.4019 11.4314 66.0398 11.2401 65.7555 10.9592C65.4713 10.6783 65.2777 10.3203 65.1993 9.93055C65.1208 9.54082 65.161 9.13683 65.3147 8.76969C65.4685 8.40254 65.7289 8.08872 66.063 7.86793C66.3972 7.64714 66.79 7.5293 67.1919 7.5293C67.7306 7.5293 68.2472 7.74084 68.6282 8.11741C69.0092 8.49399 69.2234 9.00476 69.2236 9.53743Z" fill="#FF8500"/>
<path d="M11.427 7.16309C8.03963 7.16309 5.4873 9.70759 5.4873 13.0821V13.1253C5.4873 16.4748 8.04137 18.9986 11.427 18.9986C14.8126 18.9986 17.3667 16.4549 17.3667 13.0804V13.0424C17.3667 9.69291 14.8118 7.16913 11.427 7.16913V7.16309ZM16.4216 13.0605V13.1037C16.4216 15.954 14.2842 18.1055 11.4506 18.1055C8.63884 18.1055 6.43591 15.9082 6.43591 13.1037V13.0605C6.43591 10.2103 8.57245 8.05876 11.406 8.05876C14.2187 8.05876 16.4216 10.256 16.4216 13.0605Z" fill="#282828"/>
<path d="M45.3903 8.44687C44.5404 7.60648 43.2983 7.18066 41.699 7.18066C40.3599 7.18066 39.1388 7.48383 37.7395 8.16357L37.5395 8.26117L37.9046 9.07306L38.1203 8.97028C39.4183 8.35273 40.5154 8.0772 41.6772 8.0772C44.2496 8.0772 45.6078 9.33909 45.6078 11.7264V12.3198C44.341 11.9334 43.023 11.7363 41.6972 11.735C38.571 11.735 36.5498 13.1861 36.5498 15.43V15.4741C36.5498 17.8786 38.8069 18.973 40.9041 18.973C43.2337 18.973 44.8348 17.8925 45.6078 16.8258V19.0015H46.5364V11.7039C46.5364 10.3159 46.1398 9.18967 45.3886 8.44687H45.3903ZM45.6078 13.2595V14.4937C45.6078 16.2169 43.8181 18.0764 40.926 18.0764C39.3458 18.0764 37.501 17.3898 37.501 15.4525V15.4084C37.501 13.3614 39.6804 12.6324 41.72 12.6324C43.1699 12.6324 44.4068 12.832 45.6078 13.2595Z" fill="#282828"/>
<path d="M27.7228 8.0757C28.7536 8.06501 29.7604 8.38302 30.594 8.9826L30.6097 8.99383H32.023L31.9173 8.89623C31.1478 8.16121 29.8768 7.18262 27.7438 7.18262C24.5215 7.18262 21.8984 9.82386 21.8984 13.0697V13.1112C21.8984 16.3596 24.5119 19.0017 27.7228 19.0017C29.3466 19.0017 30.718 18.4334 31.9156 17.2639L32.0178 17.1637H30.6132L30.5975 17.1749C29.7762 17.7879 28.7727 18.1147 27.7438 18.1043C25.0447 18.1043 22.8523 15.8586 22.8523 13.0904V13.049C22.8523 10.2609 24.9932 8.07743 27.7263 8.07743" fill="#282828"/>
</svg>
